# xmcd
#
# Track frame offsets: 
#        182
#        16395
#        33070
#        49062
#        63905
#        80270
#        96085
#        110682
#        123475
#        138830
#
# Disc length: 2066 seconds
#
# Revision: 3
# Processed by: cddbd v1.5PL3 Copyright (c) Steve Scherf et al.
# Submitted via: ExactAudioCopy v0.95a3
#
DISCID=7808100a
DTITLE=Davis Daniel - I Know A Place
DYEAR=1996
DGENRE=Country
TTITLE0=I Know A Place
TTITLE1=I'm Not Listening Anymore
TTITLE2=It's Been A Pleasure (Not Knowing You)
TTITLE3=Better Half Of My Heart
TTITLE4=What I Wouldn't Give
TTITLE5=Ruth Ann
TTITLE6=My Heart's Not In It
TTITLE7=Beer And Money
TTITLE8=From Where I Stand
TTITLE9=Here's Lookin' At You
EXTD=
EXTT0=
EXTT1=
EXTT2=
EXTT3=
EXTT4=
EXTT5=
EXTT6=
EXTT7=
EXTT8=
EXTT9=
PLAYORDER=
